{"asset":{"version":"2.0","generator":"Blockbench 5.0.7 glTF exporter"},"scenes":[{"nodes":[0],"name":"blockbench_export"}],"scene":0,"nodes":[{"rotation":[-0.7071067811865475,0,0,0.7071067811865476],"translation":[0.0019625,0.1367525,-0.1788325],"name":"game_console","mesh":0}],"bufferViews":[{"buffer":0,"byteOffset":0,"byteLength":16200,"target":34962,"byteStride":12},{"buffer":0,"byteOffset":16200,"byteLength":16200,"target":34962,"byteStride":12},{"buffer":0,"byteOffset":32400,"byteLength":10800,"target":34962,"byteStride":8},{"buffer":0,"byteOffset":43200,"byteLength":3900,"target":34963}],"buffers":[{"byteLength":47100,"uri":"data:application/octet-stream;base64,"}],"accessors":[{"bufferView":0,"componentType":5126,"count":1350,"max":[0.3359818756580353,0.12764562666416168,0.14293499290943146],"min":[-0.339906245470047,-0.5163325071334839,-0.1351899951696396],"type":"VEC3"},{"bufferView":1,"componentType":5126,"count":1350,"max":[1,1,1],"min":[-1,-1,-1],"type":"VEC3"},{"bufferView":2,"componentType":5126,"count":1350,"max":[0.625,0.6454304456710815],"min":[0,0],"type":"VEC2"},{"bufferView":3,"componentType":5123,"count":1950,"max":[1349],"min":[0],"type":"SCALAR"}],"materials":[{"pbrMetallicRoughness":{"metallicFactor":0,"roughnessFactor":1,"baseColorTexture":{"index":0}},"alphaMode":"MASK","alphaCutoff":0.05}],"textures":[{"sampler":0,"source":0,"name":"game_launcher_model"}],"samplers":[{"magFilter":9728,"minFilter":9728,"wrapS":10497,"wrapT":10497}],"images":[{"mimeType":"image/png","uri":"data:image/png;base64,"}],"meshes":[{"primitives":[{"mode":4,"attributes":{"POSITION":0,"NORMAL":1,"TEXCOORD_0":2},"indices":3,"material":0}]}]}