{"asset":{"version":"2.0","generator":"Blockbench 5.0.7 glTF exporter"},"scenes":[{"nodes":[0],"name":"blockbench_export"}],"scene":0,"nodes":[{"rotation":[0,0.08715574274765817,0,0.9961946980917455],"translation":[0.6875,2.325,0.125],"name":"computer","mesh":0}],"bufferViews":[{"buffer":0,"byteOffset":0,"byteLength":24192,"target":34962,"byteStride":12},{"buffer":0,"byteOffset":24192,"byteLength":24192,"target":34962,"byteStride":12},{"buffer":0,"byteOffset":48384,"byteLength":16128,"target":34962,"byteStride":8},{"buffer":0,"byteOffset":64512,"byteLength":5712,"target":34963}],"buffers":[{"byteLength":70224,"uri":"data:application/octet-stream;base64,"}],"accessors":[{"bufferView":0,"componentType":5126,"count":2016,"max":[1.2772157192230225,0.8566944003105164,0.9585801959037781],"min":[-2.5965967178344727,-2.325000047683716,-1.8206137418746948],"type":"VEC3"},{"bufferView":1,"componentType":5126,"count":2016,"max":[1,1,1],"min":[-1,-1,-1],"type":"VEC3"},{"bufferView":2,"componentType":5126,"count":2016,"max":[0.4892578125,0.5920439958572388],"min":[0.0009765625,0.0009765590075403452],"type":"VEC2"},{"bufferView":3,"componentType":5123,"count":2856,"max":[2015],"min":[0],"type":"SCALAR"}],"materials":[{"pbrMetallicRoughness":{"metallicFactor":0,"roughnessFactor":1,"baseColorTexture":{"index":0}},"alphaMode":"MASK","alphaCutoff":0.05,"doubleSided":true}],"textures":[{"sampler":0,"source":0,"name":"stiched_texture"}],"samplers":[{"magFilter":9728,"minFilter":9728,"wrapS":10497,"wrapT":10497}],"images":[{"mimeType":"image/png","uri":"data:image/png;base64,"}],"meshes":[{"primitives":[{"mode":4,"attributes":{"POSITION":0,"NORMAL":1,"TEXCOORD_0":2},"indices":3,"material":0}]}]}