{"asset":{"version":"2.0","generator":"Blockbench 5.0.7 glTF exporter"},"scenes":[{"nodes":[0,1,2],"name":"blockbench_export"}],"scene":0,"nodes":[{"translation":[0,1.21875,0],"name":"cylinder","mesh":0},{"rotation":[0.7071067811865475,0,0,0.7071067811865476],"translation":[0,1.28125,-0.25],"name":"beveled_cuboid","mesh":1},{"rotation":[0.5,0.5,0.4999999999999999,0.5000000000000001],"translation":[0,0.6875,-0.025],"name":"plane","mesh":2}],"bufferViews":[{"buffer":0,"byteOffset":0,"byteLength":3744,"target":34962,"byteStride":12},{"buffer":0,"byteOffset":3744,"byteLength":3744,"target":34962,"byteStride":12},{"buffer":0,"byteOffset":7488,"byteLength":2496,"target":34962,"byteStride":8},{"buffer":0,"byteOffset":9984,"byteLength":864,"target":34963},{"buffer":0,"byteOffset":10848,"byteLength":1152,"target":34962,"byteStride":12},{"buffer":0,"byteOffset":12000,"byteLength":1152,"target":34962,"byteStride":12},{"buffer":0,"byteOffset":13152,"byteLength":768,"target":34962,"byteStride":8},{"buffer":0,"byteOffset":13920,"byteLength":264,"target":34963},{"buffer":0,"byteOffset":14184,"byteLength":384,"target":34962,"byteStride":12},{"buffer":0,"byteOffset":14568,"byteLength":384,"target":34962,"byteStride":12},{"buffer":0,"byteOffset":14952,"byteLength":256,"target":34962,"byteStride":8},{"buffer":0,"byteOffset":15208,"byteLength":84,"target":34963}],"buffers":[{"byteLength":15292,"uri":"data:application/octet-stream;base64,"}],"accessors":[{"bufferView":0,"componentType":5126,"count":312,"max":[0.04374999925494194,0.6499999761581421,0.04374999925494194],"min":[-0.04374999925494194,0.0625,-0.04374999925494194],"type":"VEC3"},{"bufferView":1,"componentType":5126,"count":312,"max":[1,1,1],"min":[-1,-1,-1],"type":"VEC3"},{"bufferView":2,"componentType":5126,"count":312,"max":[0.4003611207008362,0.6031249761581421],"min":[0,0.03125],"type":"VEC2"},{"bufferView":3,"componentType":5123,"count":432,"max":[311],"min":[0],"type":"SCALAR"},{"bufferView":4,"componentType":5126,"count":96,"max":[0.25,0.29374998807907104,0.015625],"min":[-0.25,0.20624999701976776,-0.0625],"type":"VEC3"},{"bufferView":5,"componentType":5126,"count":96,"max":[1,1,1],"min":[-1,-1,-1],"type":"VEC3"},{"bufferView":6,"componentType":5126,"count":96,"max":[0.5487343668937683,0.34375],"min":[0.013765624724328518,0.03125],"type":"VEC2"},{"bufferView":7,"componentType":5123,"count":132,"max":[95],"min":[0],"type":"SCALAR"},{"bufferView":8,"componentType":5126,"count":32,"max":[0.581250011920929,0.0625,0.08749999850988388],"min":[-0.6875,-0.0062500000931322575,-0.08749999850988388],"type":"VEC3"},{"bufferView":9,"componentType":5126,"count":32,"max":[1,0.9276954531669617,0.3733378052711487],"min":[-0.09891308099031448,-0.9337632060050964,-0.3733378052711487],"type":"VEC3"},{"bufferView":10,"componentType":5126,"count":32,"max":[0.6457098126411438,0.37641656398773193],"min":[0.01054020319133997,0],"type":"VEC2"},{"bufferView":11,"componentType":5123,"count":42,"max":[31],"min":[0],"type":"SCALAR"}],"materials":[{"pbrMetallicRoughness":{"metallicFactor":0,"roughnessFactor":1,"baseColorTexture":{"index":0}},"alphaMode":"MASK","alphaCutoff":0.05,"doubleSided":true}],"textures":[{"sampler":0,"source":0,"name":"texture"}],"samplers":[{"magFilter":9728,"minFilter":9728,"wrapS":10497,"wrapT":10497}],"images":[{"mimeType":"image/png","uri":"data:image/png;base64,"}],"meshes":[{"primitives":[{"mode":4,"attributes":{"POSITION":0,"NORMAL":1,"TEXCOORD_0":2},"indices":3,"material":0}]},{"primitives":[{"mode":4,"attributes":{"POSITION":4,"NORMAL":5,"TEXCOORD_0":6},"indices":7,"material":0}]},{"primitives":[{"mode":4,"attributes":{"POSITION":8,"NORMAL":9,"TEXCOORD_0":10},"indices":11,"material":0}]}]}