{"asset":{"version":"2.0","generator":"Blockbench 5.0.7 glTF exporter"},"scenes":[{"nodes":[0,1,2,3],"name":"blockbench_export"}],"scene":0,"nodes":[{"translation":[0,0.325,0],"name":"monitor","mesh":0},{"translation":[1.125,0.375,0.0625],"name":"tower","mesh":1},{"translation":[0,-0.1875,-1.065625],"name":"keyboard","mesh":2},{"rotation":[0,0,-0.7071067811865475,0.7071067811865476],"translation":[-1.125,-0.184375,-0.9375],"name":"mouse","mesh":3}],"bufferViews":[{"buffer":0,"byteOffset":0,"byteLength":3144,"target":34962,"byteStride":12},{"buffer":0,"byteOffset":3144,"byteLength":3144,"target":34962,"byteStride":12},{"buffer":0,"byteOffset":6288,"byteLength":2096,"target":34962,"byteStride":8},{"buffer":0,"byteOffset":8384,"byteLength":756,"target":34963},{"buffer":0,"byteOffset":9140,"byteLength":2880,"target":34962,"byteStride":12},{"buffer":0,"byteOffset":12020,"byteLength":2880,"target":34962,"byteStride":12},{"buffer":0,"byteOffset":14900,"byteLength":1920,"target":34962,"byteStride":8},{"buffer":0,"byteOffset":16820,"byteLength":720,"target":34963},{"buffer":0,"byteOffset":17540,"byteLength":4440,"target":34962,"byteStride":12},{"buffer":0,"byteOffset":21980,"byteLength":4440,"target":34962,"byteStride":12},{"buffer":0,"byteOffset":26420,"byteLength":2960,"target":34962,"byteStride":8},{"buffer":0,"byteOffset":29380,"byteLength":1092,"target":34963},{"buffer":0,"byteOffset":30472,"byteLength":3744,"target":34962,"byteStride":12},{"buffer":0,"byteOffset":34216,"byteLength":3744,"target":34962,"byteStride":12},{"buffer":0,"byteOffset":37960,"byteLength":2496,"target":34962,"byteStride":8},{"buffer":0,"byteOffset":40456,"byteLength":936,"target":34963}],"buffers":[{"byteLength":41392,"uri":"data:application/octet-stream;base64,"}],"accessors":[{"bufferView":0,"componentType":5126,"count":262,"max":[0.5441944003105164,0.7941944003105164,0.640625],"min":[-0.5441944003105164,-0.32499998807907104,-0.53125],"type":"VEC3"},{"bufferView":1,"componentType":5126,"count":262,"max":[1,1,1],"min":[-1,-1,-1],"type":"VEC3"},{"bufferView":2,"componentType":5126,"count":262,"max":[0.677399218082428,0.671875],"min":[0,0],"type":"VEC2"},{"bufferView":3,"componentType":5123,"count":378,"max":[261],"min":[0],"type":"SCALAR"},{"bufferView":4,"componentType":5126,"count":240,"max":[0.32544437050819397,0.875,0.75],"min":[-0.32544437050819397,-0.375,-0.793563723564148],"type":"VEC3"},{"bufferView":5,"componentType":5126,"count":240,"max":[1,1,1],"min":[-1,-1,-1],"type":"VEC3"},{"bufferView":6,"componentType":5126,"count":240,"max":[0.7236446142196655,0.7207269668579102],"min":[0,0],"type":"VEC2"},{"bufferView":7,"componentType":5123,"count":360,"max":[239],"min":[0],"type":"SCALAR"},{"bufferView":8,"componentType":5126,"count":370,"max":[0.5140625238418579,0.28125,0.44674187898635864],"min":[-0.5140625238418579,0.21875,-0.3968749940395355],"type":"VEC3"},{"bufferView":9,"componentType":5126,"count":370,"max":[1,1,1],"min":[-1,-1,-1],"type":"VEC3"},{"bufferView":10,"componentType":5126,"count":370,"max":[0.6875,0.6699496507644653],"min":[0.1328125,0.03125],"type":"VEC2"},{"bufferView":11,"componentType":5123,"count":546,"max":[369],"min":[0],"type":"SCALAR"},{"bufferView":12,"componentType":5126,"count":312,"max":[-0.1875,0.3923175036907196,0.21875],"min":[-0.3125,0.1076824963092804,-0.21875],"type":"VEC3"},{"bufferView":13,"componentType":5126,"count":312,"max":[0.9965921640396118,0.9886917471885681,0.8283481001853943],"min":[-0.9809958338737488,-0.9886917471885681,-0.8291097283363342],"type":"VEC3"},{"bufferView":14,"componentType":5126,"count":312,"max":[0.671875,0.671875],"min":[0.0721423402428627,0.015625],"type":"VEC2"},{"bufferView":15,"componentType":5123,"count":468,"max":[311],"min":[0],"type":"SCALAR"}],"materials":[{"pbrMetallicRoughness":{"metallicFactor":0,"roughnessFactor":1,"baseColorTexture":{"index":0}},"alphaMode":"MASK","alphaCutoff":0.05}],"textures":[{"sampler":0,"source":0,"name":"system_settings_model"}],"samplers":[{"magFilter":9728,"minFilter":9728,"wrapS":10497,"wrapT":10497}],"images":[{"mimeType":"image/png","uri":"data:image/png;base64,"}],"meshes":[{"primitives":[{"mode":4,"attributes":{"POSITION":0,"NORMAL":1,"TEXCOORD_0":2},"indices":3,"material":0}]},{"primitives":[{"mode":4,"attributes":{"POSITION":4,"NORMAL":5,"TEXCOORD_0":6},"indices":7,"material":0}]},{"primitives":[{"mode":4,"attributes":{"POSITION":8,"NORMAL":9,"TEXCOORD_0":10},"indices":11,"material":0}]},{"primitives":[{"mode":4,"attributes":{"POSITION":12,"NORMAL":13,"TEXCOORD_0":14},"indices":15,"material":0}]}]}