{"asset":{"version":"2.0","generator":"Blockbench 5.0.7 glTF exporter"},"scenes":[{"nodes":[0],"name":"blockbench_export"}],"scene":0,"nodes":[{"translation":[0,0.541395625,-0.133409375],"name":"tv","mesh":0}],"bufferViews":[{"buffer":0,"byteOffset":0,"byteLength":2472,"target":34962,"byteStride":12},{"buffer":0,"byteOffset":2472,"byteLength":2472,"target":34962,"byteStride":12},{"buffer":0,"byteOffset":4944,"byteLength":1648,"target":34962,"byteStride":8},{"buffer":0,"byteOffset":6592,"byteLength":588,"target":34963}],"buffers":[{"byteLength":7180,"uri":"data:application/octet-stream;base64,"}],"accessors":[{"bufferView":0,"componentType":5126,"count":206,"max":[0.5441944003105164,0.5465487241744995,0.7740343809127808],"min":[-0.5441944003105164,-0.5418400168418884,-0.39784061908721924],"type":"VEC3"},{"bufferView":1,"componentType":5126,"count":206,"max":[1,1,1],"min":[-1,-1,-0.9886622428894043],"type":"VEC3"},{"bufferView":2,"componentType":5126,"count":206,"max":[0.9453125,0.9449218511581421],"min":[0,0],"type":"VEC2"},{"bufferView":3,"componentType":5123,"count":294,"max":[205],"min":[0],"type":"SCALAR"}],"materials":[{"pbrMetallicRoughness":{"metallicFactor":0,"roughnessFactor":1,"baseColorTexture":{"index":0}},"alphaMode":"MASK","alphaCutoff":0.05}],"textures":[{"sampler":0,"source":0,"name":"video_settings_model.png"}],"samplers":[{"magFilter":9728,"minFilter":9728,"wrapS":10497,"wrapT":10497}],"images":[{"mimeType":"image/png","uri":"data:image/png;base64,"}],"meshes":[{"primitives":[{"mode":4,"attributes":{"POSITION":0,"NORMAL":1,"TEXCOORD_0":2},"indices":3,"material":0}]}]}